<svg id="Layer_1" data-name="Layer 1" xmlns="http://www.w3.org/2000/svg" viewBox="0 0 238.08 44.88"><defs><style>.cls-1{fill:#2eae3e}.cls-2{fill:#3d82ab}</style></defs><path class="cls-1" d="M36.19 58.68c0 10.24-5.85 16.43-15.31 16.43S5.51 68.92 5.51 58.68s5.89-16.43 15.36-16.43 15.32 6.19 15.32 16.43zm-23.77 0c0 7.1 3.09 11 8.45 11s8.41-3.87 8.41-11-3.09-11-8.41-11-8.45 3.9-8.45 11zM66.63 62.5c0 7.92-4.44 12.61-10.39 12.61a8.09 8.09 0 01-7.54-4.64v14.3h-6.62v-34.3H48l.29 4.73a8.48 8.48 0 018.09-5.2c5.9 0 10.25 4.62 10.25 12.5zm-6.62 0c0-4.88-2.08-7.49-5.6-7.49s-5.7 2.75-5.7 7.49 2.17 7.5 5.6 7.5S60 67.42 60 62.54zM88.8 73.12a10.83 10.83 0 01-6.57 2c-4.88 0-8.21-2-8.21-7.29V55.4h-4.44v-4.93H74v-5.56l6.62-1.84v7.39h7.73v4.94h-7.71v11.35c0 2.32 1.26 3.33 3.33 3.33a5.36 5.36 0 003.77-1.35zM92.09 43.46c0-2.37 1.35-3.57 4.11-3.57s4.11 1.21 4.11 3.57S98.95 47 96.19 47s-4.1-1.17-4.1-3.54zm7.39 31.16h-6.62V50.47h6.62zM106.49 50.47h5.94l.24 4.35a8.48 8.48 0 018-4.83 8.15 8.15 0 017.87 4.78 8.84 8.84 0 018.19-4.77c4.69 0 8.65 2.85 8.6 8.79v15.85h-6.57V60.08c0-3.53-1.74-4.88-4.15-4.88-2.95 0-5.31 2.22-5.31 6.43v13h-6.62V60.08c0-3.53-1.74-4.88-4.2-4.88s-5.31 1.88-5.31 6.62v12.8h-6.62z" transform="translate(-5.51 -39.89)"/><path class="cls-2" d="M180.06 42.74v31.88h-6.66V61.19h-14.06v13.43h-6.67V42.74h6.67v13.09h14.06V42.74zM186.92 43.46c0-2.37 1.35-3.57 4.11-3.57s4.11 1.21 4.11 3.57S193.79 47 191 47s-4.08-1.17-4.08-3.54zm7.39 31.16h-6.61V50.47h6.62zM201.32 50.47h5.75l.43 4.73A7.44 7.44 0 01215 50a5.54 5.54 0 012.61.53l-.77 5.56a8.55 8.55 0 00-3-.39c-2.95 0-5.89 2.08-5.89 6.42v12.5h-6.62zM243.4 64.62h-17.05c.53 3.77 2.71 5.56 6 5.56 2.85 0 4.49-1.16 5.46-3.09l5.27 2c-1.55 3.82-5.75 6-10.68 6-7.63 0-12.56-4.64-12.56-12.56S224.9 50 232.1 50s11.5 4.78 11.5 11.26a31.26 31.26 0 01-.2 3.36zm-17-4.62h10.82c-.34-3.33-2.17-5.17-5.17-5.17S227 56.6 226.4 60z" transform="translate(-5.51 -39.89)"/></svg>